<?xml version="1.0" encoding="iso-8859-1"?>
<!-- Generator: Adobe Illustrator 18.0.0, SVG Export Plug-In . SVG Version: 6.00 Build 0)  -->
<!DOCTYPE svg PUBLIC "-//W3C//DTD SVG 1.1//EN" "http://www.w3.org/Graphics/SVG/1.1/DTD/svg11.dtd">
<svg version="1.1" id="Capa_1" xmlns="http://www.w3.org/2000/svg" xmlns:xlink="http://www.w3.org/1999/xlink" x="0px" y="0px"
	 viewBox="0 0 281.488 281.488" style="enable-background:new 0 0 281.488 281.488;" xml:space="preserve">
<g>
	<path d="M140.744,0C63.138,0,0,63.138,0,140.744s63.138,140.744,140.744,140.744s140.744-63.138,140.744-140.744
		S218.351,0,140.744,0z M140.744,263.488C73.063,263.488,18,208.426,18,140.744S73.063,18,140.744,18
		s122.744,55.063,122.744,122.744S208.426,263.488,140.744,263.488z"/>
	<path d="M159.103,95.977c-3.63-3.396-9.326-3.202-12.72,0.428c-3.395,3.632-3.203,9.327,0.428,12.721l24.197,22.619H96.674v-5.508
		c0-4.971-4.029-9-9-9s-9,4.029-9,9v29.016c0,4.971,4.029,9,9,9s9-4.029,9-9v-5.508h74.333l-24.197,22.619
		c-3.631,3.394-3.822,9.089-0.428,12.721c1.771,1.896,4.171,2.854,6.576,2.854c2.202,0,4.409-0.803,6.144-2.426l40.858-38.193
		c1.82-1.701,2.854-4.082,2.854-6.574s-1.033-4.873-2.854-6.574L159.103,95.977z"/>
</g>
<g>
</g>
<g>
</g>
<g>
</g>
<g>
</g>
<g>
</g>
<g>
</g>
<g>
</g>
<g>
</g>
<g>
</g>
<g>
</g>
<g>
</g>
<g>
</g>
<g>
</g>
<g>
</g>
<g>
</g>
</svg>
