<?xml version="1.0" encoding="iso-8859-1"?>
<!-- Generator: Adobe Illustrator 16.0.0, SVG Export Plug-In . SVG Version: 6.00 Build 0)  -->
<!DOCTYPE svg PUBLIC "-//W3C//DTD SVG 1.1//EN" "http://www.w3.org/Graphics/SVG/1.1/DTD/svg11.dtd">
<svg version="1.1" id="Capa_1" xmlns="http://www.w3.org/2000/svg" xmlns:xlink="http://www.w3.org/1999/xlink" x="0px" y="0px"
	 width="124px" height="124px" viewBox="0 0 124 124" style="enable-background:new 0 0 124 124;" xml:space="preserve">
<g>
	<path d="M75,0H21.5c-3.4,0-7,2.3-7,5.7V117.6c0,3.4,3.5,6.4,7,6.4h81.8c3.4,0,6.2-3,6.2-6.4V34c0-5.5-2.2-10.7-6.1-14.6L89.8,5.9
		C85.8,1.9,80.5,0,75,0z M91.2,67.6c-0.101,2-1,3.9-2.601,5.301C88.4,73,69.4,92.1,69.4,92.1C67.9,93.6,65.9,94.4,63.8,94.4
		c-2.1,0-4.1-0.801-5.6-2.301s-2.3-3.5-2.3-5.6s0.8-4.1,2.3-5.6L64.1,75H38.8c-4.4,0-8-3.6-8-8s3.6-8,8-8H64l-5.9-5.9
		c-1.5-1.5-2.3-3.5-2.3-5.6s0.8-4.1,2.3-5.6s3.5-2.3,5.6-2.3c2.1,0,4.1,0.8,5.6,2.3C89,61.6,89,61.6,89,61.6
		C90.5,63.2,91.3,65.4,91.2,67.6z"/>
</g>
<g>
</g>
<g>
</g>
<g>
</g>
<g>
</g>
<g>
</g>
<g>
</g>
<g>
</g>
<g>
</g>
<g>
</g>
<g>
</g>
<g>
</g>
<g>
</g>
<g>
</g>
<g>
</g>
<g>
</g>
</svg>
